<svg width="100" height="84" viewBox="0 0 100 84" fill="none" xmlns="http://www.w3.org/2000/svg">
<path d="M48.4381 31.4128C44.3071 42.6059 43.1456 49.3196 45.0765 62.8093C49.0398 53.7817 50.5259 51.1227 52.547 48.435C62.4772 35.5721 68.6584 29.8566 80.9339 22.7126C86.4207 19.8335 88.0915 18.2705 89.8982 15.5254C93.0203 7.27206 88.0307 2.25007 83.5485 0.358717C79.4399 -0.740219 73.6097 0.35872 65.2464 8.30242C56.4492 16.6582 52.1136 21.4279 48.4381 31.4128Z" fill="#FFDC9F"/>
<path d="M71.0662 55.7515C65.6432 60.2411 62.9758 63.313 59.5127 70.7135C64.1673 67.2744 65.68 66.3532 67.4398 65.5716C75.9766 61.9049 80.5563 60.785 88.3038 60.6954C91.666 60.8147 92.9098 60.5028 94.5926 59.6303C98.6251 56.3418 98.0153 52.3568 96.6281 50.1064C95.1531 48.3656 92.2085 47.2442 85.9445 48.8662C79.3556 50.5724 75.8995 51.7439 71.0662 55.7515Z" fill="#FFDC9F"/>
<path d="M36.0414 37.167C33.0886 44.2573 30.6412 47.7731 23.5321 52.4495C25.5891 46.3774 26.0312 44.4104 26.2114 42.1316C26.9415 31.0815 26.3571 25.1813 23.2888 15.2589C21.7751 10.958 21.6252 9.35534 21.9416 7.17212C24.0799 1.90143 28.921 2.55173 32.0817 4.25409C34.6912 6.08553 37.1887 9.81893 37.884 17.8921C38.6155 26.3841 38.6805 30.8474 36.0414 37.167Z" fill="#FFDC9F"/>
</svg>
