<svg width="403" height="116" viewBox="0 0 403 116" fill="none" xmlns="http://www.w3.org/2000/svg">
<path d="M5.68555 100.477H87.6855" stroke="#FFB72D" stroke-width="5" stroke-linecap="round"/>
<path d="M122.688 100.36C123.664 100.568 124.448 101.056 125.04 101.824C125.632 102.576 125.928 103.44 125.928 104.416C125.928 105.824 125.432 106.944 124.44 107.776C123.464 108.592 122.096 109 120.336 109H112.488V92.1521H120.072C121.784 92.1521 123.12 92.5441 124.08 93.3281C125.056 94.1121 125.544 95.1761 125.544 96.5201C125.544 97.5121 125.28 98.3361 124.752 98.9921C124.24 99.6481 123.552 100.104 122.688 100.36ZM116.592 98.9681H119.28C119.952 98.9681 120.464 98.8241 120.816 98.5361C121.184 98.2321 121.368 97.7921 121.368 97.2161C121.368 96.6401 121.184 96.2001 120.816 95.8961C120.464 95.5921 119.952 95.4401 119.28 95.4401H116.592V98.9681ZM119.616 105.688C120.304 105.688 120.832 105.536 121.2 105.232C121.584 104.912 121.776 104.456 121.776 103.864C121.776 103.272 121.576 102.808 121.176 102.472C120.792 102.136 120.256 101.968 119.568 101.968H116.592V105.688H119.616ZM142.876 106.024H136.588L135.58 109H131.284L137.38 92.1521H142.132L148.228 109H143.884L142.876 106.024ZM141.82 102.856L139.732 96.6881L137.668 102.856H141.82ZM163.932 109L158.268 101.56V109H154.164V92.1521H158.268V99.5441L163.884 92.1521H168.708L162.18 100.408L168.948 109H163.932ZM179.082 95.4401V98.8481H184.578V102.016H179.082V105.712H185.298V109H174.978V92.1521H185.298V95.4401H179.082ZM206.634 92.1521V109H202.53V102.064H196.146V109H192.042V92.1521H196.146V98.7521H202.53V92.1521H206.634ZM221.645 109.168C220.061 109.168 218.605 108.8 217.277 108.064C215.965 107.328 214.917 106.304 214.133 104.992C213.365 103.664 212.981 102.176 212.981 100.528C212.981 98.8801 213.365 97.4001 214.133 96.0881C214.917 94.7761 215.965 93.7521 217.277 93.0161C218.605 92.2801 220.061 91.9121 221.645 91.9121C223.229 91.9121 224.677 92.2801 225.989 93.0161C227.317 93.7521 228.357 94.7761 229.109 96.0881C229.877 97.4001 230.261 98.8801 230.261 100.528C230.261 102.176 229.877 103.664 229.109 104.992C228.341 106.304 227.301 107.328 225.989 108.064C224.677 108.8 223.229 109.168 221.645 109.168ZM221.645 105.424C222.989 105.424 224.061 104.976 224.861 104.08C225.677 103.184 226.085 102 226.085 100.528C226.085 99.0401 225.677 97.8561 224.861 96.9761C224.061 96.0801 222.989 95.6321 221.645 95.6321C220.285 95.6321 219.197 96.0721 218.381 96.9521C217.581 97.8321 217.181 99.0241 217.181 100.528C217.181 102.016 217.581 103.208 218.381 104.104C219.197 104.984 220.285 105.424 221.645 105.424ZM240.656 92.1521V102.232C240.656 103.24 240.904 104.016 241.4 104.56C241.896 105.104 242.624 105.376 243.584 105.376C244.544 105.376 245.28 105.104 245.792 104.56C246.304 104.016 246.56 103.24 246.56 102.232V92.1521H250.664V102.208C250.664 103.712 250.344 104.984 249.704 106.024C249.064 107.064 248.2 107.848 247.112 108.376C246.04 108.904 244.84 109.168 243.512 109.168C242.184 109.168 240.992 108.912 239.936 108.4C238.896 107.872 238.072 107.088 237.464 106.048C236.856 104.992 236.552 103.712 236.552 102.208V92.1521H240.656ZM263.722 109.168C262.49 109.168 261.386 108.968 260.41 108.568C259.434 108.168 258.65 107.576 258.058 106.792C257.482 106.008 257.178 105.064 257.146 103.96H261.514C261.578 104.584 261.794 105.064 262.162 105.4C262.53 105.72 263.01 105.88 263.602 105.88C264.21 105.88 264.69 105.744 265.042 105.472C265.394 105.184 265.57 104.792 265.57 104.296C265.57 103.88 265.426 103.536 265.138 103.264C264.866 102.992 264.522 102.768 264.106 102.592C263.706 102.416 263.13 102.216 262.378 101.992C261.29 101.656 260.402 101.32 259.714 100.984C259.026 100.648 258.434 100.152 257.938 99.4961C257.442 98.8401 257.194 97.9841 257.194 96.9281C257.194 95.3601 257.762 94.1361 258.898 93.2561C260.034 92.3601 261.514 91.9121 263.338 91.9121C265.194 91.9121 266.69 92.3601 267.826 93.2561C268.962 94.1361 269.57 95.3681 269.65 96.9521H265.21C265.178 96.4081 264.978 95.9841 264.61 95.6801C264.242 95.3601 263.77 95.2001 263.194 95.2001C262.698 95.2001 262.298 95.3361 261.994 95.6081C261.69 95.8641 261.538 96.2401 261.538 96.7361C261.538 97.2801 261.794 97.7041 262.306 98.0081C262.818 98.3121 263.618 98.6401 264.706 98.9921C265.794 99.3601 266.674 99.7121 267.346 100.048C268.034 100.384 268.626 100.872 269.122 101.512C269.618 102.152 269.866 102.976 269.866 103.984C269.866 104.944 269.618 105.816 269.122 106.6C268.642 107.384 267.938 108.008 267.01 108.472C266.082 108.936 264.986 109.168 263.722 109.168ZM280.576 95.4401V98.8481H286.072V102.016H280.576V105.712H286.792V109H276.472V92.1521H286.792V95.4401H280.576Z" fill="#565252"/>
<path d="M314 100.778H396" stroke="#FFB72D" stroke-width="5" stroke-linecap="round"/>
<path d="M41.7556 54.28C44.1823 54.28 46.5223 53.8987 48.7756 53.136C51.0636 52.3733 52.8316 51.6107 54.0796 50.848L62.6596 67.904C60.9956 69.2907 58.1703 70.6947 54.1836 72.116C50.1969 73.5373 45.4996 74.248 40.0916 74.248C35.0303 74.248 30.2463 73.3813 25.7396 71.648C21.2329 69.88 17.2289 67.4013 13.7276 64.212C10.2609 61.0227 7.53961 57.2787 5.56361 52.98C3.58761 48.6467 2.59961 43.9147 2.59961 38.784C2.59961 33.6533 3.58761 28.9213 5.56361 24.588C7.53961 20.22 10.2609 16.4413 13.7276 13.252C17.1943 10.028 21.1809 7.53199 25.6876 5.76399C30.2289 3.99599 35.0303 3.11199 40.0916 3.11199C45.4996 3.11199 50.1969 3.82266 54.1836 5.244C58.1703 6.66533 60.9956 8.06933 62.6596 9.456L54.0796 26.512C52.8316 25.7493 51.0636 24.9867 48.7756 24.224C46.5223 23.4613 44.1823 23.08 41.7556 23.08C38.4623 23.08 35.7063 23.548 33.4876 24.484C31.2689 25.42 29.4836 26.668 28.1316 28.228C26.8143 29.7533 25.8609 31.4347 25.2716 33.272C24.7169 35.0747 24.4396 36.86 24.4396 38.628C24.4396 40.4307 24.7169 42.2507 25.2716 44.088C25.8609 45.9253 26.8143 47.624 28.1316 49.184C29.4836 50.7093 31.2689 51.94 33.4876 52.876C35.7063 53.812 38.4623 54.28 41.7556 54.28ZM111.105 73V67.02C110.759 67.644 109.979 68.5453 108.765 69.724C107.587 70.868 106.027 71.908 104.085 72.844C102.179 73.78 99.9422 74.248 97.3769 74.248C93.1129 74.248 89.4382 73.1907 86.3529 71.076C83.3022 68.9267 80.9622 66.136 79.3329 62.704C77.7036 59.272 76.8889 55.5973 76.8889 51.68C76.8889 47.7627 77.7036 44.088 79.3329 40.656C80.9622 37.224 83.3022 34.4333 86.3529 32.284C89.4382 30.1347 93.1129 29.06 97.3769 29.06C99.8036 29.06 101.919 29.4067 103.721 30.1C105.524 30.7587 107.015 31.5733 108.193 32.544C109.407 33.48 110.308 34.3987 110.897 35.3V30.308H131.281V73H111.105ZM96.9609 51.68C96.9609 52.8587 97.2556 53.968 97.8449 55.008C98.4342 56.048 99.2489 56.88 100.289 57.504C101.329 58.128 102.543 58.44 103.929 58.44C105.316 58.44 106.529 58.128 107.569 57.504C108.609 56.88 109.424 56.048 110.013 55.008C110.603 53.968 110.897 52.8587 110.897 51.68C110.897 50.5013 110.603 49.392 110.013 48.352C109.424 47.312 108.609 46.48 107.569 45.856C106.529 45.1973 105.316 44.868 103.929 44.868C102.543 44.868 101.329 45.1973 100.289 45.856C99.2489 46.48 98.4342 47.312 97.8449 48.352C97.2556 49.392 96.9609 50.5013 96.9609 51.68ZM172.404 58.44C173.86 58.44 175.091 58.1627 176.096 57.608C177.136 57.0533 177.882 56.5507 178.332 56.1L187.536 69.776C186.843 70.3307 185.803 70.972 184.416 71.7C183.03 72.3933 181.314 72.9827 179.268 73.468C177.258 73.988 174.952 74.248 172.352 74.248C166.736 74.248 161.952 73.2773 158 71.336C154.083 69.3947 151.084 66.7253 149.004 63.328C146.959 59.9307 145.936 56.0307 145.936 51.628C145.936 47.1907 146.959 43.2907 149.004 39.928C151.084 36.5307 154.083 33.8787 158 31.972C161.952 30.0307 166.736 29.06 172.352 29.06C174.883 29.06 177.171 29.3027 179.216 29.788C181.296 30.2733 183.064 30.8453 184.52 31.504C186.011 32.1627 187.086 32.7693 187.744 33.324L178.332 47.052C178.124 46.844 177.743 46.5667 177.188 46.22C176.668 45.8733 176.01 45.5613 175.212 45.284C174.415 45.0067 173.479 44.868 172.404 44.868C171.052 44.868 169.856 45.1973 168.816 45.856C167.776 46.5147 166.962 47.364 166.372 48.404C165.783 49.4093 165.488 50.484 165.488 51.628C165.488 52.772 165.783 53.864 166.372 54.904C166.962 55.944 167.776 56.7933 168.816 57.452C169.856 58.1107 171.052 58.44 172.404 58.44ZM233.098 29.06C236.253 29.06 239.303 29.684 242.25 30.932C245.231 32.1453 247.675 34.104 249.582 36.808C251.523 39.4773 252.494 42.996 252.494 47.364V73H232.006V50.536C232.006 48.3173 231.521 46.5667 230.55 45.284C229.614 43.9667 228.227 43.308 226.39 43.308C225.177 43.308 224.015 43.6027 222.906 44.192C221.831 44.7813 220.965 45.6133 220.306 46.688C219.647 47.7627 219.318 49.0453 219.318 50.536V73H198.83V1.448H219.318V35.664C219.769 34.5547 220.653 33.4973 221.97 32.492C223.287 31.4867 224.917 30.672 226.858 30.048C228.799 29.3893 230.879 29.06 233.098 29.06ZM267.374 73V30.308H287.81V73H267.374ZM277.826 25.576C274.776 25.576 272.176 24.5013 270.026 22.352C267.912 20.168 266.854 17.5853 266.854 14.604C266.854 11.6227 267.912 9.03999 270.026 6.856C272.176 4.63733 274.776 3.528 277.826 3.528C279.837 3.528 281.674 4.03066 283.338 5.036C285.002 6.04133 286.337 7.376 287.342 9.04C288.382 10.704 288.902 12.5587 288.902 14.604C288.902 17.5853 287.81 20.168 285.626 22.352C283.477 24.5013 280.877 25.576 277.826 25.576ZM300.361 30.308H306.861V12.784H327.089V30.308H335.721V46.948H327.089V52.46C327.089 53.708 327.228 54.852 327.505 55.892C327.817 56.932 328.614 57.452 329.897 57.452C330.59 57.452 331.232 57.2787 331.821 56.932C332.445 56.5853 332.826 56.3427 332.965 56.204L339.621 70.608C339.344 70.8507 338.442 71.2667 336.917 71.856C335.426 72.4453 333.52 72.9827 331.197 73.468C328.909 73.988 326.396 74.248 323.657 74.248C318.734 74.248 314.696 72.9133 311.541 70.244C308.421 67.5747 306.861 63.5013 306.861 58.024V46.948H300.361V30.308ZM374.486 74.248C369.633 74.248 365.317 73.312 361.538 71.44C357.759 69.5333 354.795 66.8987 352.646 63.536C350.497 60.1387 349.422 56.2213 349.422 51.784C349.422 47.3467 350.497 43.4293 352.646 40.032C354.795 36.6 357.759 33.9133 361.538 31.972C365.317 30.0307 369.633 29.06 374.486 29.06C379.339 29.06 383.621 30.0307 387.33 31.972C391.039 33.9133 393.934 36.6 396.014 40.032C398.129 43.4293 399.186 47.3467 399.186 51.784C399.186 56.2213 398.129 60.1387 396.014 63.536C393.934 66.8987 391.039 69.5333 387.33 71.44C383.621 73.312 379.339 74.248 374.486 74.248ZM374.486 57.608C375.63 57.608 376.601 57.3827 377.398 56.932C378.195 56.4467 378.802 55.7533 379.218 54.852C379.669 53.9507 379.894 52.8933 379.894 51.68C379.894 50.4667 379.669 49.4093 379.218 48.508C378.802 47.6067 378.195 46.9133 377.398 46.428C376.601 45.9427 375.63 45.7 374.486 45.7C373.342 45.7 372.354 45.9427 371.522 46.428C370.725 46.9133 370.101 47.6067 369.65 48.508C369.199 49.4093 368.974 50.4667 368.974 51.68C368.974 52.8933 369.199 53.9507 369.65 54.852C370.101 55.7533 370.725 56.4467 371.522 56.932C372.354 57.3827 373.342 57.608 374.486 57.608Z" fill="#FF5757"/>
</svg>
